<?xml version="1.0" encoding="us-ascii" standalone="no"?><svg xmlns="http://www.w3.org/2000/svg" xmlns:xlink="http://www.w3.org/1999/xlink" contentStyleType="text/css" height="776px" preserveAspectRatio="none" style="width:808px;height:776px;background:#FFFFFF;" version="1.1" viewBox="0 0 808 776" width="808px" zoomAndPan="magnify"><defs/><g><text fill="#000000" font-family="Verdana" font-size="22" font-weight="bold" lengthAdjust="spacing" textLength="775" x="15" y="35.4209">Component Diagram of the project Personal Finance Tracker</text><!--cluster SS--><g id="cluster_SS"><rect fill="#FFFFFF" height="385" rx="2.5" ry="2.5" style="stroke:#000000;stroke-width:1.0;" width="122" x="168.2615" y="58.6094"/><rect fill="#FFFFFF" height="10" style="stroke:#000000;stroke-width:1.0;" width="15" x="270.2615" y="63.6094"/><rect fill="#FFFFFF" height="2" style="stroke:#000000;stroke-width:1.0;" width="4" x="268.2615" y="65.6094"/><rect fill="#FFFFFF" height="2" style="stroke:#000000;stroke-width:1.0;" width="4" x="268.2615" y="69.6094"/><text fill="#000000" font-family="Verdana" font-size="14" font-weight="bold" lengthAdjust="spacing" textLength="92" x="183.2615" y="84.6045">Server_Side</text></g><!--cluster CS--><g id="cluster_CS"><rect fill="#FFFFFF" height="265" rx="2.5" ry="2.5" style="stroke:#000000;stroke-width:1.0;" width="320" x="314.2615" y="202.6094"/><rect fill="#FFFFFF" height="10" style="stroke:#000000;stroke-width:1.0;" width="15" x="614.2615" y="207.6094"/><rect fill="#FFFFFF" height="2" style="stroke:#000000;stroke-width:1.0;" width="4" x="612.2615" y="209.6094"/><rect fill="#FFFFFF" height="2" style="stroke:#000000;stroke-width:1.0;" width="4" x="612.2615" y="213.6094"/><text fill="#000000" font-family="Verdana" font-size="14" font-weight="bold" lengthAdjust="spacing" textLength="88" x="430.2615" y="228.6045">Client_Side</text></g><!--cluster S--><g id="cluster_S"><rect fill="#FFFFFF" height="97" rx="2.5" ry="2.5" style="stroke:#000000;stroke-width:1.0;" width="272" x="338.2615" y="346.6094"/><rect fill="#FFFFFF" height="10" style="stroke:#000000;stroke-width:1.0;" width="15" x="590.2615" y="351.6094"/><rect fill="#FFFFFF" height="2" style="stroke:#000000;stroke-width:1.0;" width="4" x="588.2615" y="353.6094"/><rect fill="#FFFFFF" height="2" style="stroke:#000000;stroke-width:1.0;" width="4" x="588.2615" y="357.6094"/><text fill="#000000" font-family="Verdana" font-size="14" font-weight="bold" lengthAdjust="spacing" textLength="50" x="449.2615" y="372.6045">Static</text></g><!--cluster SQLite3--><g id="cluster_SQLite3"><path d="M190.2615,534.6094 C190.2615,524.6094 326.7615,524.6094 326.7615,524.6094 C326.7615,524.6094 463.2615,524.6094 463.2615,534.6094 L463.2615,749.6094 C463.2615,759.6094 326.7615,759.6094 326.7615,759.6094 C326.7615,759.6094 190.2615,759.6094 190.2615,749.6094 L190.2615,534.6094 " fill="#FFFFFF" style="stroke:#000000;stroke-width:1.0;"/><path d="M190.2615,534.6094 C190.2615,544.6094 326.7615,544.6094 326.7615,544.6094 C326.7615,544.6094 463.2615,544.6094 463.2615,534.6094 " fill="none" style="stroke:#000000;stroke-width:1.0;"/><text fill="#000000" font-family="Verdana" font-size="14" font-weight="bold" lengthAdjust="spacing" textLength="63" x="295.2615" y="559.6045">SQLite3</text></g><!--entity U--><g id="elem_U"><rect fill="#FFFFFF" height="46.2969" rx="2.5" ry="2.5" style="stroke:#000000;stroke-width:1.0;" width="66" x="208.2615" y="93.6094"/><rect fill="#FFFFFF" height="10" style="stroke:#000000;stroke-width:1.0;" width="15" x="254.2615" y="98.6094"/><rect fill="#FFFFFF" height="2" style="stroke:#000000;stroke-width:1.0;" width="4" x="252.2615" y="100.6094"/><rect fill="#FFFFFF" height="2" style="stroke:#000000;stroke-width:1.0;" width="4" x="252.2615" y="104.6094"/><text fill="#000000" font-family="Verdana" font-size="14" lengthAdjust="spacing" textLength="26" x="223.2615" y="126.6045">Urls</text></g><!--entity M--><g id="elem_M"><rect fill="#FFFFFF" height="46.2969" rx="2.5" ry="2.5" style="stroke:#000000;stroke-width:1.0;" width="90" x="184.2615" y="381.6094"/><rect fill="#FFFFFF" height="10" style="stroke:#000000;stroke-width:1.0;" width="15" x="254.2615" y="386.6094"/><rect fill="#FFFFFF" height="2" style="stroke:#000000;stroke-width:1.0;" width="4" x="252.2615" y="388.6094"/><rect fill="#FFFFFF" height="2" style="stroke:#000000;stroke-width:1.0;" width="4" x="252.2615" y="392.6094"/><text fill="#000000" font-family="Verdana" font-size="14" lengthAdjust="spacing" textLength="50" x="199.2615" y="414.6045">Models</text></g><!--entity V--><g id="elem_V"><rect fill="#FFFFFF" height="46.2969" rx="2.5" ry="2.5" style="stroke:#000000;stroke-width:1.0;" width="81" x="184.7615" y="237.6094"/><rect fill="#FFFFFF" height="10" style="stroke:#000000;stroke-width:1.0;" width="15" x="245.7615" y="242.6094"/><rect fill="#FFFFFF" height="2" style="stroke:#000000;stroke-width:1.0;" width="4" x="243.7615" y="244.6094"/><rect fill="#FFFFFF" height="2" style="stroke:#000000;stroke-width:1.0;" width="4" x="243.7615" y="248.6094"/><text fill="#000000" font-family="Verdana" font-size="14" lengthAdjust="spacing" textLength="41" x="199.7615" y="270.6045">Views</text></g><!--entity T--><g id="elem_T"><rect fill="#FFFFFF" height="46.2969" rx="2.5" ry="2.5" style="stroke:#000000;stroke-width:1.0;" width="117" x="418.7615" y="237.6094"/><rect fill="#FFFFFF" height="10" style="stroke:#000000;stroke-width:1.0;" width="15" x="515.7615" y="242.6094"/><rect fill="#FFFFFF" height="2" style="stroke:#000000;stroke-width:1.0;" width="4" x="513.7615" y="244.6094"/><rect fill="#FFFFFF" height="2" style="stroke:#000000;stroke-width:1.0;" width="4" x="513.7615" y="248.6094"/><text fill="#000000" font-family="Verdana" font-size="14" lengthAdjust="spacing" textLength="77" x="433.7615" y="270.6045">Templates</text></g><!--entity IJS--><g id="elem_IJS"><rect fill="#FFFFFF" height="46.2969" rx="2.5" ry="2.5" style="stroke:#000000;stroke-width:1.0;" width="95" x="354.7615" y="381.6094"/><rect fill="#FFFFFF" height="10" style="stroke:#000000;stroke-width:1.0;" width="15" x="429.7615" y="386.6094"/><rect fill="#FFFFFF" height="2" style="stroke:#000000;stroke-width:1.0;" width="4" x="427.7615" y="388.6094"/><rect fill="#FFFFFF" height="2" style="stroke:#000000;stroke-width:1.0;" width="4" x="427.7615" y="392.6094"/><text fill="#000000" font-family="Verdana" font-size="14" lengthAdjust="spacing" textLength="55" x="369.7615" y="414.6045">index.js</text></g><!--entity SC--><g id="elem_SC"><rect fill="#FFFFFF" height="46.2969" rx="2.5" ry="2.5" style="stroke:#000000;stroke-width:1.0;" width="109" x="484.7615" y="381.6094"/><rect fill="#FFFFFF" height="10" style="stroke:#000000;stroke-width:1.0;" width="15" x="573.7615" y="386.6094"/><rect fill="#FFFFFF" height="2" style="stroke:#000000;stroke-width:1.0;" width="4" x="571.7615" y="388.6094"/><rect fill="#FFFFFF" height="2" style="stroke:#000000;stroke-width:1.0;" width="4" x="571.7615" y="392.6094"/><text fill="#000000" font-family="Verdana" font-size="14" lengthAdjust="spacing" textLength="69" x="499.7615" y="414.6045">styles.css</text></g><!--entity User--><g id="elem_User"><rect fill="#FFFFFF" height="46.2969" rx="2.5" ry="2.5" style="stroke:#000000;stroke-width:1.0;" width="71" x="233.7615" y="582.6094"/><path d="M257.4282,582.6094 L257.4282,587.6094 L250.4282,594.6094 L233.7615,594.6094 " fill="none" style="stroke:#000000;stroke-width:1.0;"/><text fill="#000000" font-family="Verdana" font-size="14" lengthAdjust="spacing" textLength="31" x="248.7615" y="615.6045">User</text></g><!--entity Account--><g id="elem_Account"><rect fill="#FFFFFF" height="46.2969" rx="2.5" ry="2.5" style="stroke:#000000;stroke-width:1.0;" width="99" x="339.7615" y="582.6094"/><path d="M372.7615,582.6094 L372.7615,587.6094 L365.7615,594.6094 L339.7615,594.6094 " fill="none" style="stroke:#000000;stroke-width:1.0;"/><text fill="#000000" font-family="Verdana" font-size="14" lengthAdjust="spacing" textLength="59" x="354.7615" y="615.6045">Account</text></g><!--entity Transaction--><g id="elem_Transaction"><rect fill="#FFFFFF" height="46.2969" rx="2.5" ry="2.5" style="stroke:#000000;stroke-width:1.0;" width="124" x="233.2615" y="689.6094"/><path d="M274.5949,689.6094 L274.5949,694.6094 L267.5949,701.6094 L233.2615,701.6094 " fill="none" style="stroke:#000000;stroke-width:1.0;"/><text fill="#000000" font-family="Verdana" font-size="14" lengthAdjust="spacing" textLength="84" x="248.2615" y="722.6045">Transaction</text></g><!--link T to U--><g id="link_T_U"><path d="M440.5435,237.5164 C395.0175,210.1234 323.2317,166.9297 279.4657,140.5967 " fill="none" id="T-to-U" style="stroke:#000000;stroke-width:1.0;"/><polygon fill="#000000" points="274.3245,137.5034,279.974,145.5708,278.6088,140.0811,284.0985,138.7159,274.3245,137.5034" style="stroke:#000000;stroke-width:1.0;"/><text fill="#000000" font-family="Verdana" font-size="13" lengthAdjust="spacing" textLength="64" x="353.2615" y="182.6763">form data</text></g><!--link T to IJS--><g id="link_T_IJS"><path d="M418.6575,273.9304 C397.1495,281.5934 374.9735,293.9094 362.2615,313.6094 C348.2625,335.3034 360.8341,358.1243 376.6681,376.9633 " fill="none" id="T-to-IJS" style="stroke:#000000;stroke-width:1.0;"/><polygon fill="#000000" points="380.5285,381.5564,377.7999,372.093,377.3115,377.7288,371.6757,377.2403,380.5285,381.5564" style="stroke:#000000;stroke-width:1.0;"/><text fill="#000000" font-family="Verdana" font-size="13" lengthAdjust="spacing" textLength="64" x="363.2615" y="326.6763">form data</text></g><!--link IJS to T--><g id="link_IJS_T"><path d="M413.8975,381.5774 C427.9515,354.9704 448.6503,315.7798 462.7403,289.1028 " fill="none" id="IJS-to-T" style="stroke:#000000;stroke-width:1.0;"/><polygon fill="#000000" points="465.5425,283.7974,457.8023,289.8874,463.2074,288.2186,464.8762,293.6237,465.5425,283.7974" style="stroke:#000000;stroke-width:1.0;"/><text fill="#000000" font-family="Verdana" font-size="13" lengthAdjust="spacing" textLength="116" x="450.2615" y="326.6763">data for rendering</text></g><!--link T to SC--><g id="link_T_SC"><path d="M541.3896,276.5856 C562.2466,284.3036 577.9715,294.4254 590.2615,313.6094 C604.6965,336.1414 589.3487,358.746 570.4047,377.206 " fill="none" id="T-SC" style="stroke:#000000;stroke-width:1.0;"/><polygon fill="#000000" points="535.7625,274.5034,542.815,281.3782,540.4518,276.2386,545.5913,273.8754,535.7625,274.5034" style="stroke:#000000;stroke-width:1.0;"/><polygon fill="#000000" points="566.1075,381.3934,575.3449,377.9771,569.6885,377.9039,569.7617,372.2475,566.1075,381.3934" style="stroke:#000000;stroke-width:1.0;"/></g><!--link IJS to U--><g id="link_IJS_U"><path d="M417.6575,381.3214 C429.3625,366.3684 446.8925,347.7894 467.2615,338.6094 C480.4555,332.6634 587.3475,341.1524 597.2615,330.6094 C638.9915,286.2334 621.5455,239.4004 580.2615,194.6094 C538.8985,149.7314 357.2749,128.2678 280.3219,120.9968 " fill="none" id="IJS-to-U" style="stroke:#000000;stroke-width:1.0;"/><polygon fill="#000000" points="274.3485,120.4324,282.9323,125.2612,279.3264,120.9027,283.6849,117.2967,274.3485,120.4324" style="stroke:#000000;stroke-width:1.0;"/><text fill="#000000" font-family="Verdana" font-size="13" lengthAdjust="spacing" textLength="33" x="621.2615" y="265.1763">fetch</text></g><!--link U to V--><g id="link_U_V"><path d="M238.7615,139.7974 C235.7556,166.4744 231.4139,205.0081 228.4158,231.6151 " fill="none" id="U-to-V" style="stroke:#000000;stroke-width:1.0;"/><polygon fill="#000000" points="227.7439,237.5774,232.7265,229.0819,228.3038,232.6088,224.7768,228.1861,227.7439,237.5774" style="stroke:#000000;stroke-width:1.0;"/><text fill="#000000" font-family="Verdana" font-size="13" lengthAdjust="spacing" textLength="49" x="236.2615" y="182.6763">request</text></g><!--link V to M--><g id="link_V_M"><path d="M226.0555,289.795 C226.807,316.472 227.7225,348.9728 228.472,375.5798 " fill="none" id="V-M" style="stroke:#000000;stroke-width:1.0;"/><polygon fill="#000000" points="225.8865,283.7974,222.1415,292.9064,226.0273,288.7954,230.1384,292.6812,225.8865,283.7974" style="stroke:#000000;stroke-width:1.0;"/><polygon fill="#000000" points="228.6409,381.5774,232.3859,372.4683,228.5001,376.5794,224.3891,372.6936,228.6409,381.5774" style="stroke:#000000;stroke-width:1.0;"/></g><!--link V to IJS--><g id="link_V_IJS"><path d="M240.2048,283.8014 C250.6157,298.2254 265.4305,316.8384 281.2615,330.6094 C304.3065,350.6564 328.2824,365.6078 352.2494,378.6188 " fill="none" id="V-to-IJS" style="stroke:#000000;stroke-width:1.0;"/><polygon fill="#000000" points="357.5225,381.4814,351.5213,373.6721,353.1283,379.0959,347.7045,380.7029,357.5225,381.4814" style="stroke:#000000;stroke-width:1.0;"/><text fill="#000000" font-family="Verdana" font-size="13" lengthAdjust="spacing" textLength="31" x="282.2615" y="326.6763">JSON</text></g><!--link V to T--><g id="link_V_T"><path d="M266.0295,260.6094 C307.4015,260.6094 365.8535,260.6094 412.6875,260.6094 " fill="none" id="V-to-T" style="stroke:#000000;stroke-width:1.0;"/><polygon fill="#000000" points="418.6875,260.6094,409.6875,256.6094,413.6875,260.6094,409.6875,264.6094,418.6875,260.6094" style="stroke:#000000;stroke-width:1.0;"/><text fill="#000000" font-family="Verdana" font-size="13" lengthAdjust="spacing" textLength="116" x="284.2615" y="253.6763">data for rendering</text></g><!--link M to SQLite3--><g id="link_M_SQLite3"><path d="M206.5478,427.8974 C193.4637,442.3854 178.262,462.4624 171.2615,483.6094 C162.7385,509.3549 169.146,539.0691 177.8516,562.6086 C180.0279,568.4935 182.3479,573.9925 184.6142,578.947 C185.7473,581.4243 186.867,583.7654 187.9486,585.9507 C188.4893,587.0433 189.0206,588.097 189.5392,589.1091 C189.6689,589.3622 189.7978,589.6126 189.9258,589.8605 C189.9898,589.9844 187.2908,584.7816 187.3544,584.9042 " fill="none" id="M-to-SQLite3" style="stroke:#000000;stroke-width:1.0;"/><polygon fill="#000000" points="190.1172,590.2302,189.5237,580.3993,187.8149,585.7919,182.4223,584.083,190.1172,590.2302" style="stroke:#000000;stroke-width:1.0;"/><text fill="#000000" font-family="Verdana" font-size="13" lengthAdjust="spacing" textLength="37" x="172.2615" y="496.6763">query</text></g><!--link SQLite3 to M--><g id="link_SQLite3_M"><path d="M210.8119,524.0445 C210.8583,523.746 210.9049,523.4474 210.9514,523.1484 C211.1377,521.9528 211.3245,520.7535 211.5118,519.5514 C212.2608,514.7429 213.0171,509.8885 213.7732,505.0342 C215.2856,495.3258 216.7978,485.6183 218.2523,476.2815 C221.1613,457.6078 222.9157,446.3454 224.902,433.5949 " fill="none" id="SQLite3-to-M" style="stroke:#000000;stroke-width:1.0;"/><polygon fill="#000000" points="225.8255,427.6664,220.4879,435.9434,225.0559,432.6068,228.3925,437.1748,225.8255,427.6664" style="stroke:#000000;stroke-width:1.0;"/><text fill="#000000" font-family="Verdana" font-size="13" lengthAdjust="spacing" textLength="49" x="218.2615" y="496.6763">dataset</text></g><!--SRC=[TP1DJyCm38Rl-HLcz-t2RK98g0Y9YVAXjBrC28NKsxArIKayO4BxxoHfrz5Dv9BOZz_NZYzeXJL2Kmcb6NCRfS4QXuoHeWeXCNLZD6g2MoMMLjHW5k0bq5YpHadmZDOPBIguKrfeYP1P8JTe6PEzTCxHVg9zuwh4Ln0EE8SV1l2d8ZKbLYx2DBBza1SAlrfSz7XOaTjEdxFze7bIANyVcoTdpJa9KhATBB81LRh4xycwDR-VyHFkQ5UXcqZdeZuvcpsUUOQrtp5XQvD16B8K9Dw5G-0l3uhmClPU-2KZvCwly13SI6csclfuv7UidP2aZ1u5emp6usl8OGeBOsi8lbtEptkIlGffFsOWuPbv7b0e0el-irRfPO-ZAP9SiJp6XOyjVcpH4IjQizG_Zhrc_EcnI_nZpT983v-UWdUpEtQ8esMdT4Y_]--></g></svg>