<?xml version="1.0" encoding="us-ascii" standalone="no"?><svg xmlns="http://www.w3.org/2000/svg" xmlns:xlink="http://www.w3.org/1999/xlink" contentStyleType="text/css" height="495px" preserveAspectRatio="none" style="width:848px;height:495px;background:#FFFFFF;" version="1.1" viewBox="0 0 848 495" width="848px" zoomAndPan="magnify"><defs/><g><text fill="#000000" font-family="Verdana" font-size="22" font-weight="bold" lengthAdjust="spacing" textLength="625" x="107" y="35.4209">Component Diagram of Personal Finance Tracker</text><!--cluster CS--><g id="cluster_CS"><rect fill="#FFFFFF" height="281" rx="2.5" ry="2.5" style="stroke:#000000;stroke-width:1.0;" width="320" x="158" y="208.6094"/><rect fill="#FFFFFF" height="10" style="stroke:#000000;stroke-width:1.0;" width="15" x="458" y="213.6094"/><rect fill="#FFFFFF" height="2" style="stroke:#000000;stroke-width:1.0;" width="4" x="456" y="215.6094"/><rect fill="#FFFFFF" height="2" style="stroke:#000000;stroke-width:1.0;" width="4" x="456" y="219.6094"/><text fill="#000000" font-family="Verdana" font-size="14" font-weight="bold" lengthAdjust="spacing" textLength="88" x="274" y="234.6045">Client_Side</text></g><!--cluster S--><g id="cluster_S"><rect fill="#FFFFFF" height="97" rx="2.5" ry="2.5" style="stroke:#000000;stroke-width:1.0;" width="272" x="182" y="251.6094"/><rect fill="#FFFFFF" height="10" style="stroke:#000000;stroke-width:1.0;" width="15" x="434" y="256.6094"/><rect fill="#FFFFFF" height="2" style="stroke:#000000;stroke-width:1.0;" width="4" x="432" y="258.6094"/><rect fill="#FFFFFF" height="2" style="stroke:#000000;stroke-width:1.0;" width="4" x="432" y="262.6094"/><text fill="#000000" font-family="Verdana" font-size="14" font-weight="bold" lengthAdjust="spacing" textLength="50" x="293" y="277.6045">Static</text></g><!--cluster SS--><g id="cluster_SS"><rect fill="#FFFFFF" height="409" rx="2.5" ry="2.5" style="stroke:#000000;stroke-width:1.0;" width="122" x="12" y="80.6094"/><rect fill="#FFFFFF" height="10" style="stroke:#000000;stroke-width:1.0;" width="15" x="114" y="85.6094"/><rect fill="#FFFFFF" height="2" style="stroke:#000000;stroke-width:1.0;" width="4" x="112" y="87.6094"/><rect fill="#FFFFFF" height="2" style="stroke:#000000;stroke-width:1.0;" width="4" x="112" y="91.6094"/><text fill="#000000" font-family="Verdana" font-size="14" font-weight="bold" lengthAdjust="spacing" textLength="92" x="27" y="106.6045">Server_Side</text></g><!--cluster SQLite3--><g id="cluster_SQLite3"><path d="M510,67.6094 C510,57.6094 670.5,57.6094 670.5,57.6094 C670.5,57.6094 831,57.6094 831,67.6094 L831,346.6094 C831,356.6094 670.5,356.6094 670.5,356.6094 C670.5,356.6094 510,356.6094 510,346.6094 L510,67.6094 " fill="#FFFFFF" style="stroke:#000000;stroke-width:1.0;"/><path d="M510,67.6094 C510,77.6094 670.5,77.6094 670.5,77.6094 C670.5,77.6094 831,77.6094 831,67.6094 " fill="none" style="stroke:#000000;stroke-width:1.0;"/><text fill="#000000" font-family="Verdana" font-size="14" font-weight="bold" lengthAdjust="spacing" textLength="63" x="639" y="92.6045">SQLite3</text></g><!--entity T--><g id="elem_T"><rect fill="#FFFFFF" height="46.2969" rx="2.5" ry="2.5" style="stroke:#000000;stroke-width:1.0;" width="117" x="220.5" y="427.6094"/><rect fill="#FFFFFF" height="10" style="stroke:#000000;stroke-width:1.0;" width="15" x="317.5" y="432.6094"/><rect fill="#FFFFFF" height="2" style="stroke:#000000;stroke-width:1.0;" width="4" x="315.5" y="434.6094"/><rect fill="#FFFFFF" height="2" style="stroke:#000000;stroke-width:1.0;" width="4" x="315.5" y="438.6094"/><text fill="#000000" font-family="Verdana" font-size="14" lengthAdjust="spacing" textLength="77" x="235.5" y="460.6045">Templates</text></g><!--entity IJS--><g id="elem_IJS"><rect fill="#FFFFFF" height="46.2969" rx="2.5" ry="2.5" style="stroke:#000000;stroke-width:1.0;" width="95" x="198.5" y="286.6094"/><rect fill="#FFFFFF" height="10" style="stroke:#000000;stroke-width:1.0;" width="15" x="273.5" y="291.6094"/><rect fill="#FFFFFF" height="2" style="stroke:#000000;stroke-width:1.0;" width="4" x="271.5" y="293.6094"/><rect fill="#FFFFFF" height="2" style="stroke:#000000;stroke-width:1.0;" width="4" x="271.5" y="297.6094"/><text fill="#000000" font-family="Verdana" font-size="14" lengthAdjust="spacing" textLength="55" x="213.5" y="319.6045">index.js</text></g><!--entity SC--><g id="elem_SC"><rect fill="#FFFFFF" height="46.2969" rx="2.5" ry="2.5" style="stroke:#000000;stroke-width:1.0;" width="109" x="328.5" y="286.6094"/><rect fill="#FFFFFF" height="10" style="stroke:#000000;stroke-width:1.0;" width="15" x="417.5" y="291.6094"/><rect fill="#FFFFFF" height="2" style="stroke:#000000;stroke-width:1.0;" width="4" x="415.5" y="293.6094"/><rect fill="#FFFFFF" height="2" style="stroke:#000000;stroke-width:1.0;" width="4" x="415.5" y="297.6094"/><text fill="#000000" font-family="Verdana" font-size="14" lengthAdjust="spacing" textLength="69" x="343.5" y="319.6045">styles.css</text></g><!--entity M--><g id="elem_M"><rect fill="#FFFFFF" height="46.2969" rx="2.5" ry="2.5" style="stroke:#000000;stroke-width:1.0;" width="90" x="28" y="115.6094"/><rect fill="#FFFFFF" height="10" style="stroke:#000000;stroke-width:1.0;" width="15" x="98" y="120.6094"/><rect fill="#FFFFFF" height="2" style="stroke:#000000;stroke-width:1.0;" width="4" x="96" y="122.6094"/><rect fill="#FFFFFF" height="2" style="stroke:#000000;stroke-width:1.0;" width="4" x="96" y="126.6094"/><text fill="#000000" font-family="Verdana" font-size="14" lengthAdjust="spacing" textLength="50" x="43" y="148.6045">Models</text></g><!--entity V--><g id="elem_V"><rect fill="#FFFFFF" height="46.2969" rx="2.5" ry="2.5" style="stroke:#000000;stroke-width:1.0;" width="81" x="35.5" y="286.6094"/><rect fill="#FFFFFF" height="10" style="stroke:#000000;stroke-width:1.0;" width="15" x="96.5" y="291.6094"/><rect fill="#FFFFFF" height="2" style="stroke:#000000;stroke-width:1.0;" width="4" x="94.5" y="293.6094"/><rect fill="#FFFFFF" height="2" style="stroke:#000000;stroke-width:1.0;" width="4" x="94.5" y="297.6094"/><text fill="#000000" font-family="Verdana" font-size="14" lengthAdjust="spacing" textLength="41" x="50.5" y="319.6045">Views</text></g><!--entity U--><g id="elem_U"><rect fill="#FFFFFF" height="46.2969" rx="2.5" ry="2.5" style="stroke:#000000;stroke-width:1.0;" width="66" x="52" y="427.6094"/><rect fill="#FFFFFF" height="10" style="stroke:#000000;stroke-width:1.0;" width="15" x="98" y="432.6094"/><rect fill="#FFFFFF" height="2" style="stroke:#000000;stroke-width:1.0;" width="4" x="96" y="434.6094"/><rect fill="#FFFFFF" height="2" style="stroke:#000000;stroke-width:1.0;" width="4" x="96" y="438.6094"/><text fill="#000000" font-family="Verdana" font-size="14" lengthAdjust="spacing" textLength="26" x="67" y="460.6045">Urls</text></g><!--entity User--><g id="elem_User"><rect fill="#FFFFFF" height="46.2969" rx="2.5" ry="2.5" style="stroke:#000000;stroke-width:1.0;" width="71" x="568.5" y="115.6094"/><path d="M592.1667,115.6094 L592.1667,120.6094 L585.1667,127.6094 L568.5,127.6094 " fill="none" style="stroke:#000000;stroke-width:1.0;"/><text fill="#000000" font-family="Verdana" font-size="14" lengthAdjust="spacing" textLength="31" x="583.5" y="148.6045">User</text></g><!--entity Account--><g id="elem_Account"><rect fill="#FFFFFF" height="46.2969" rx="2.5" ry="2.5" style="stroke:#000000;stroke-width:1.0;" width="99" x="674.5" y="115.6094"/><path d="M707.5,115.6094 L707.5,120.6094 L700.5,127.6094 L674.5,127.6094 " fill="none" style="stroke:#000000;stroke-width:1.0;"/><text fill="#000000" font-family="Verdana" font-size="14" lengthAdjust="spacing" textLength="59" x="689.5" y="148.6045">Account</text></g><!--entity Transaction--><g id="elem_Transaction"><rect fill="#FFFFFF" height="46.2969" rx="2.5" ry="2.5" style="stroke:#000000;stroke-width:1.0;" width="124" x="542" y="286.6094"/><path d="M583.3333,286.6094 L583.3333,291.6094 L576.3333,298.6094 L542,298.6094 " fill="none" style="stroke:#000000;stroke-width:1.0;"/><text fill="#000000" font-family="Verdana" font-size="14" lengthAdjust="spacing" textLength="84" x="557" y="319.6045">Transaction</text></g><!--entity Category--><g id="elem_Category"><rect fill="#FFFFFF" height="46.2969" rx="2.5" ry="2.5" style="stroke:#000000;stroke-width:1.0;" width="106" x="701" y="286.6094"/><path d="M736.3333,286.6094 L736.3333,291.6094 L729.3333,298.6094 L701,298.6094 " fill="none" style="stroke:#000000;stroke-width:1.0;"/><text fill="#000000" font-family="Verdana" font-size="14" lengthAdjust="spacing" textLength="66" x="716" y="319.6045">Category</text></g><!--link M to V--><g id="link_M_V"><path d="M73.4987,167.7024 C74.0736,200.0914 74.9262,248.1193 75.5012,280.5113 " fill="none" id="M-V" style="stroke:#000000;stroke-width:1.0;"/><polygon fill="#000000" points="73.3922,161.7034,69.5526,170.7729,73.4809,166.7026,77.5513,170.631,73.3922,161.7034" style="stroke:#000000;stroke-width:1.0;"/><polygon fill="#000000" points="75.6077,286.5104,79.4473,277.4408,75.519,281.5112,71.4486,277.5828,75.6077,286.5104" style="stroke:#000000;stroke-width:1.0;"/></g><!--link V to U--><g id="link_V_U"><path d="M67.9094,332.8894 C62.5857,350.5314 57.3828,375.7564 62,397.6094 C64.163,407.8471 65.8834,413.112 70.1975,422.1068 " fill="none" id="V-to-U" style="stroke:#000000;stroke-width:1.0;"/><polygon fill="#000000" points="72.7922,427.5168,72.5067,417.6721,70.6299,423.0085,65.2935,421.1317,72.7922,427.5168" style="stroke:#000000;stroke-width:1.0;"/><text fill="#000000" font-family="Verdana" font-size="13" lengthAdjust="spacing" textLength="49" x="63" y="393.6763">request</text></g><!--link V to T--><g id="link_V_T"><path d="M90.0754,332.9364 C103.261,352.2994 124.564,379.9204 149,397.6094 C170.265,413.0036 191.0706,422.6568 214.5576,430.9937 " fill="none" id="V-to-T" style="stroke:#000000;stroke-width:1.0;"/><polygon fill="#000000" points="220.212,433.0008,213.0685,426.2206,215.5,431.3282,210.3924,433.7598,220.212,433.0008" style="stroke:#000000;stroke-width:1.0;"/><text fill="#000000" font-family="Verdana" font-size="13" lengthAdjust="spacing" textLength="42" x="150" y="393.6763">render</text></g><!--link V to IJS--><g id="link_V_IJS"><path d="M122.719,309.6094 C147.276,309.6094 166.675,309.6094 192.379,309.6094 " fill="none" id="V-IJS" style="stroke:#000000;stroke-width:1.0;"/><polygon fill="#000000" points="116.719,309.6094,125.719,313.6094,121.719,309.6094,125.719,305.6094,116.719,309.6094" style="stroke:#000000;stroke-width:1.0;"/><polygon fill="#000000" points="198.379,309.6094,189.379,305.6094,193.379,309.6094,189.379,313.6094,198.379,309.6094" style="stroke:#000000;stroke-width:1.0;"/><text fill="#000000" font-family="Verdana" font-size="13" lengthAdjust="spacing" textLength="31" x="142" y="302.6763">JSON</text></g><!--link IJS to SC--><g id="link_IJS_SC"><path d="M293.629,309.6094 C305.149,309.6094 310.67,309.6094 322.19,309.6094 " fill="none" id="IJS-to-SC" style="stroke:#000000;stroke-width:1.0;"/><polygon fill="#000000" points="328.19,309.6094,319.19,305.6094,323.19,309.6094,319.19,313.6094,328.19,309.6094" style="stroke:#000000;stroke-width:1.0;"/></g><!--link IJS to T--><g id="link_IJS_T"><path d="M260.525,337.992 C267.156,351.443 272.179,363.8514 276,380.6094 C279.518,396.0404 280.2757,407.904 280.1167,421.588 " fill="none" id="IJS-T" style="stroke:#000000;stroke-width:1.0;"/><polygon fill="#000000" points="257.872,332.6104,258.2638,342.4514,260.0828,337.095,265.4392,338.9141,257.872,332.6104" style="stroke:#000000;stroke-width:1.0;"/><polygon fill="#000000" points="280.047,427.5876,284.1513,418.6347,280.1051,422.5879,276.1518,418.5417,280.047,427.5876" style="stroke:#000000;stroke-width:1.0;"/></g><!--link T to SC--><g id="link_T_SC"><path d="M299.3406,422.4231 C318.8156,396.3953 343.5675,363.3125 362.9265,337.4385 " fill="none" id="T-SC" style="stroke:#000000;stroke-width:1.0;"/><polygon fill="#000000" points="295.746,427.2272,304.3406,422.4175,298.7415,423.2238,297.9352,417.6247,295.746,427.2272" style="stroke:#000000;stroke-width:1.0;"/><polygon fill="#000000" points="366.521,332.6344,357.9265,337.4443,363.5256,336.6378,364.3321,342.2369,366.521,332.6344" style="stroke:#000000;stroke-width:1.0;"/></g><!--link T to U--><g id="link_T_U"><path d="M220.253,450.6094 C186.874,450.6094 152.3,450.6094 124.35,450.6094 " fill="none" id="T-to-U" style="stroke:#000000;stroke-width:1.0;"/><polygon fill="#000000" points="118.35,450.6094,127.35,454.6094,123.35,450.6094,127.35,446.6094,118.35,450.6094" style="stroke:#000000;stroke-width:1.0;"/><text fill="#000000" font-family="Verdana" font-size="13" lengthAdjust="spacing" textLength="64" x="137.25" y="443.6763">form data</text></g><!--link M to SQLite3--><g id="link_M_SQLite3"><path d="M124.118,138.6094 C179.358,138.6094 269.992,138.6094 354.4259,138.6094 C396.6428,138.6094 435.8097,138.6094 465.2273,138.6094 C479.9361,138.6094 492.2076,138.6094 501.2044,138.6094 C503.4535,138.6094 505.4981,138.6094 507.3248,138.6094 C508.2382,138.6094 503.0971,138.6094 503.9,138.6094 " fill="none" id="M-SQLite3" style="stroke:#000000;stroke-width:1.0;"/><polygon fill="#000000" points="118.118,138.6094,127.118,142.6094,123.118,138.6094,127.118,134.6094,118.118,138.6094" style="stroke:#000000;stroke-width:1.0;"/><polygon fill="#000000" points="509.9,138.6094,500.9,134.6094,504.9,138.6094,500.9,142.6094,509.9,138.6094" style="stroke:#000000;stroke-width:1.0;"/><text fill="#000000" font-family="Verdana" font-size="13" lengthAdjust="spacing" textLength="99" x="268.32" y="131.6763">query - dataset</text></g><!--link IJS to U--><g id="link_IJS_U"><path d="M236.485,332.9424 C226.56,355.4204 211.07,388.0874 201,397.6094 C177.668,419.672 149.1195,431.685 123.8715,439.4716 " fill="none" id="IJS-to-U" style="stroke:#000000;stroke-width:1.0;"/><polygon fill="#000000" points="118.138,441.2399,127.9171,442.4099,122.9159,439.7663,125.5595,434.7652,118.138,441.2399" style="stroke:#000000;stroke-width:1.0;"/><text fill="#000000" font-family="Verdana" font-size="13" lengthAdjust="spacing" textLength="33" x="214" y="393.6763">fetch</text></g><!--SRC=[NP3BJiCm44Nt_ehX0zmDEnHLGa58L9I7d6I343BEf3LDx69FAHNglpDE-evanJFtU1xtYkRO8InRRPqGSM4T11zH2BBK8kI-Mtg7Zk3EwbdG7VW6NZ14xtGBzzPfPn2AeCq2Wn3cWB_bhUN_Xx8rleEEa2lu4m30vuHIfCcQ7jZffwfrDVwElcAlFqpKfHvfqs8ScJWGAcTWUzwWm8vt8no8GcpFXbGOVZ0SXrJ342V4rDVO3e-dvqfbSJq8rSLIPTYzA3cVEjQQzAUE2EhrqH9UzqqQTXEXZEpRFhWrngyS7MBsrKLjo7ftoEMypCo7JQgRlWeokLhACOzNWQpzsl6zX1i8-Bt2IAAIuo95x6NewM1dSsA83MLiefwV15_tQJQHesnNgH15rkSAASUfQkD31saViTybaoqsgTwKPMuPDY1x8YBrXOTtI6R-3m00]--></g></svg>